<?xml version="1.0" encoding="UTF-8" standalone="no"?>
<!-- Generator: Adobe Illustrator 12.0.0, SVG Export Plug-In . SVG Version: 6.00 Build 51448)  -->

<svg
   version="1.1"
   id="Layer_1"
   width="512"
   height="512"
   viewBox="0 0 512 512"
   overflow="visible"
   enable-background="new 0 0 521 189"
   xml:space="preserve"
   sodipodi:docname="Zune logo.svg"
   inkscape:version="1.4.3 (0d15f75042, 2025-12-25)"
   xmlns:inkscape="http://www.inkscape.org/namespaces/inkscape"
   xmlns:sodipodi="http://sodipodi.sourceforge.net/DTD/sodipodi-0.dtd"
   xmlns="http://www.w3.org/2000/svg"
   xmlns:svg="http://www.w3.org/2000/svg"><defs
   id="defs13">
	<linearGradient
   id="XMLID_2_"
   gradientUnits="userSpaceOnUse"
   x1="88.485802"
   y1="177.5806"
   x2="88.485802"
   y2="11.4194"
   gradientTransform="matrix(3.0813257,0,0,3.0813257,-16.654562,-35.187458)">
		<stop
   offset="0"
   style="stop-color:#EE9037"
   id="stop1" />
		<stop
   offset="0.0996"
   style="stop-color:#EE8E3E"
   id="stop2" />
		<stop
   offset="0.259"
   style="stop-color:#EE884F"
   id="stop3" />
		<stop
   offset="0.4583"
   style="stop-color:#EC7D63"
   id="stop4" />
		<stop
   offset="0.6897"
   style="stop-color:#EA6C76"
   id="stop5" />
		<stop
   offset="0.9452"
   style="stop-color:#E6558A"
   id="stop6" />
		<stop
   offset="1"
   style="stop-color:#E64E8D"
   id="stop7" />
	</linearGradient>
	
	

		
	
			
			
			
			
		</defs><sodipodi:namedview
   id="namedview13"
   pagecolor="#ffffff"
   bordercolor="#000000"
   borderopacity="0.25"
   inkscape:showpageshadow="2"
   inkscape:pageopacity="0.0"
   inkscape:pagecheckerboard="0"
   inkscape:deskcolor="#d1d1d1"
   inkscape:zoom="0.9128859"
   inkscape:cx="265.09337"
   inkscape:cy="282.07249"
   inkscape:window-width="1920"
   inkscape:window-height="1132"
   inkscape:window-x="0"
   inkscape:window-y="0"
   inkscape:window-maximized="1"
   inkscape:current-layer="Layer_1" />
<path
   fill="url(#XMLID_2_)"
   d="m 471.49833,152.2311 c 6.47694,-11.42556 12.56564,-25.13438 -7.99296,-36.93585 C 442.9406,103.48453 299.39393,19.336602 279.59025,7.1592025 l -0.76108,0.3790031 C 269.68687,2.9655178 251.02945,-5.7977725 233.52135,5.6277836 216.00093,17.056421 82.351511,95.491567 58.363391,109.58247 c -23.985039,14.09398 -16.756249,32.74217 -4.572687,39.9802 12.192805,7.23187 46.078144,27.79972 56.739536,35.02543 10.65522,7.24112 20.17652,15.99516 11.04039,31.61132 -9.1423,15.61616 -68.537932,119.17334 -80.721494,138.9801 -12.189725,19.8006 -6.0887,35.7896 8.760209,44.92881 14.842746,9.13921 158.783795,92.14396 175.915965,102.05043 17.13525,9.9003 33.88226,13.69957 50.25951,4.93936 16.37416,-8.75713 163.35342,-95.56423 181.62877,-106.61387 18.27534,-11.04039 9.51821,-29.31573 1.51909,-34.2705 -7.99604,-4.94553 -48.74041,-31.599 -64.35041,-41.49622 -15.60691,-9.90338 -14.08474,-16.38033 -5.71277,-31.22615 8.05766,-14.28501 76.15496,-129.83781 82.62883,-141.26028 z M 124.65811,168.50666 C 117.1027,164.47012 89.256762,148.1884 82.157388,143.76978 68.833735,135.48717 73.055152,122.69043 82.228258,118.0253 91.401365,113.36326 185.32634,59.692724 196.3883,54.580805 c 9.3549,-4.320019 18.38319,3.287774 11.90316,15.169366 -4.092,7.512272 -45.84705,78.182479 -53.47025,91.133289 -7.60471,12.94465 -17.77617,14.23573 -30.1631,7.6232 z M 87.149136,320.23112 c 4.002642,-7.56465 44.873344,-78.74942 52.330154,-91.79267 7.45065,-13.03401 17.60361,-14.4545 30.07682,-7.99912 7.60163,3.95025 35.64786,19.88995 42.79653,24.21922 13.42534,8.11621 9.36415,20.95609 0.25575,25.74139 -9.11148,4.76681 -102.37396,59.59898 -113.365051,64.84648 -9.305604,4.44327 -18.420165,-3.06284 -12.094203,-15.0153 z m 156.968894,143.7192 c -0.81039,13.70573 -11.65357,20.04402 -31.37098,8.20865 C 193.02657,460.30511 94.122176,404.33899 81.729084,397.47688 69.33291,390.61168 62.791256,379.4388 79.747791,369.96064 c 16.953454,-9.472 123.832319,-71.10159 139.091049,-80.46266 15.25564,-9.37029 26.19126,-4.74524 26.02179,14.32817 -0.20953,25.27611 0.0616,146.42151 -0.7426,160.12417 z m 0.68714,-250.38543 c 0.39133,10.2793 -8.73248,20.18884 -22.44746,12.59029 -7.31815,-4.05502 -35.10246,-20.45384 -42.2912,-25.08199 -11.81688,-7.60163 -15.64081,-17.11984 -8.03609,-30.07065 7.60163,-12.95698 49.0054,-83.833634 53.57501,-91.068587 7.22262,-11.431719 18.27226,-7.262685 19.04875,3.016618 0.91207,12.149667 -0.24034,120.331929 0.15099,130.614319 z M 266.2666,51.702846 c -0.38208,-17.890177 9.12997,-25.001875 25.50722,-15.230993 21.70487,12.953894 126.40833,73.871707 137.83388,81.485657 11.42248,7.62012 11.42248,20.18269 -8.75712,31.22308 -20.18269,11.04655 -118.42154,68.15892 -130.59894,75.39387 -12.18664,7.23804 -25.13437,7.23804 -24.75229,-12.18664 0.38209,-19.42468 1.14625,-142.791715 0.76725,-160.684974 z m 0,379.246474 c -0.90283,-12.15275 0.379,-120.32577 0,-130.60507 -0.38208,-10.28547 8.75713,-20.17959 22.46595,-12.56873 7.29966,4.06119 35.07166,20.4939 42.26347,25.13437 11.79841,7.61704 15.60693,17.13834 7.99912,30.08299 -7.62011,12.94773 -49.11018,83.77508 -53.69211,91.00079 -7.23495,11.42555 -18.27534,7.23495 -19.03643,-3.04435 z m 120.0947,-85.40203 c 7.54616,4.03962 35.3767,20.36141 42.46375,24.78927 13.31749,8.30109 9.08374,21.09167 -0.0955,25.74448 -9.18544,4.64972 -103.17513,58.197 -114.23709,63.29967 -9.36107,4.31078 -18.3832,-3.3155 -11.89393,-15.18477 4.10126,-7.51227 45.93951,-78.12393 53.57504,-91.06858 7.63244,-12.93233 17.8039,-14.21108 30.18775,-7.58007 z m -14.74415,-59.95643 c -7.47221,13.03093 -17.62826,14.43909 -30.09532,7.96215 -7.5893,-3.95951 -35.62012,-19.92692 -42.77189,-24.26543 -13.40685,-8.12853 -9.33642,-20.9715 -0.21878,-25.73523 9.12382,-4.76373 102.45103,-59.48191 113.4452,-64.72325 9.3056,-4.42478 18.42324,3.08749 12.08496,15.03379 -4.01805,7.56157 -44.97195,78.69706 -52.44417,91.72797 z"
   id="path7"
   style="fill:url(#XMLID_2_);stroke-width:3.08133" />
</svg>
